<svg xmlns="http://www.w3.org/2000/svg" viewBox="0 0 240 240" width="240" height="240"><defs><linearGradient id="lr" x1="0" y1="0" x2="1" y2="1"><stop offset="0%" stop-color="#ff006e"/><stop offset="33%" stop-color="#ffbe0b"/><stop offset="66%" stop-color="#3a86ff"/><stop offset="100%" stop-color="#8338ec"/></linearGradient></defs><line x1="92" y1="178" x2="78" y2="220" stroke="#a8b5e0" stroke-width="9" stroke-linecap="round"/><line x1="148" y1="178" x2="162" y2="220" stroke="#a8b5e0" stroke-width="9" stroke-linecap="round"/><ellipse cx="74" cy="223" rx="17" ry="7" fill="white" stroke="#1a1a2e" stroke-width="3.5"/><ellipse cx="166" cy="223" rx="17" ry="7" fill="white" stroke="#1a1a2e" stroke-width="3.5"/><path d="M 48 110 Q 22 130 30 168 Q 35 184 50 182" fill="none" stroke="#1a1a2e" stroke-width="4.5" stroke-linecap="round"/><ellipse cx="44" cy="184" rx="13" ry="11" fill="white" stroke="#1a1a2e" stroke-width="3.5"/><path d="M 192 95 Q 212 75 205 48" fill="none" stroke="#1a1a2e" stroke-width="4.5" stroke-linecap="round"/><ellipse cx="202" cy="42" rx="11" ry="13" fill="white" stroke="#1a1a2e" stroke-width="3.5"/><rect x="40" y="60" width="160" height="120" rx="8" fill="#3aac3e" stroke="#1a1a2e" stroke-width="4.5"/><rect x="44" y="64" width="42" height="42" fill="#1a1a2e"/><rect x="158" y="148" width="28" height="28" fill="url(#lr)" stroke="#1a1a2e" stroke-width="2.5"/><line x1="50" y1="78" x2="68" y2="78" stroke="#1a1a2e" stroke-width="3" stroke-linecap="round"/><line x1="48" y1="90" x2="62" y2="90" stroke="#1a1a2e" stroke-width="3" stroke-linecap="round"/><circle cx="103" cy="118" r="24" fill="white" stroke="#1a1a2e" stroke-width="4"/><circle cx="148" cy="118" r="24" fill="white" stroke="#1a1a2e" stroke-width="4"/><circle cx="108" cy="121" r="11" fill="#5a8fd6"/><circle cx="153" cy="121" r="11" fill="#5a8fd6"/><circle cx="109" cy="122" r="5" fill="#1a1a2e"/><circle cx="154" cy="122" r="5" fill="#1a1a2e"/><circle cx="106" cy="118" r="2.8" fill="white"/><circle cx="151" cy="118" r="2.8" fill="white"/><ellipse cx="125" cy="158" rx="6" ry="8" fill="#1a1a2e"/><ellipse cx="125" cy="159" rx="3" ry="4" fill="#fdba74"/></svg>
